<svg viewBox="0 0 95 95" fill="none" xmlns="http://www.w3.org/2000/svg">
<path d="M47.5307 0.700195L55.6979 6.7847L65.5719 4.2888L70.789 13.0356L80.8664 14.5083L82.3391 24.5858L91.0859 29.8028L88.59 39.6768L94.6745 47.844L88.59 56.0112L91.0859 65.8851L82.3391 71.1022L80.8664 81.1797L70.789 82.6524L65.5719 91.3991L55.6979 88.9033L47.5307 94.9878L39.3635 88.9033L29.4896 91.3991L24.2725 82.6524L14.1951 81.1797L12.7224 71.1022L3.97557 65.8851L6.47147 56.0112L0.386963 47.844L6.47147 39.6768L3.97557 29.8028L12.7224 24.5858L14.1951 14.5083L24.2725 13.0356L29.4896 4.2888L39.3635 6.7847L47.5307 0.700195Z" fill="url(#paint0_linear_27_1133)"/>
<path d="M45.5571 15.7104V17.3101H40.3618V15.7104H45.5571ZM40.9702 11.6567V21.6099H38.9194V11.6567H40.9702ZM47.02 11.6567V21.6099H44.9761V11.6567H47.02ZM52.6802 18.062H50.144V16.4624H52.6802C53.0721 16.4624 53.3911 16.3986 53.6372 16.271C53.8833 16.1388 54.0633 15.9565 54.1772 15.7241C54.2912 15.4917 54.3481 15.2297 54.3481 14.938C54.3481 14.6418 54.2912 14.366 54.1772 14.1108C54.0633 13.8556 53.8833 13.6506 53.6372 13.4956C53.3911 13.3407 53.0721 13.2632 52.6802 13.2632H50.855V21.6099H48.8042V11.6567H52.6802C53.4595 11.6567 54.1271 11.798 54.6831 12.0806C55.2437 12.3586 55.672 12.7437 55.9683 13.2358C56.2645 13.728 56.4126 14.2909 56.4126 14.9243C56.4126 15.5669 56.2645 16.1229 55.9683 16.5923C55.672 17.0617 55.2437 17.424 54.6831 17.6792C54.1271 17.9344 53.4595 18.062 52.6802 18.062Z" fill="#E1E7EF"/>
<defs>
<linearGradient id="paint0_linear_27_1133" x1="47.5307" y1="0.700195" x2="47.5307" y2="94.9878" gradientUnits="userSpaceOnUse">
<stop stop-color="#DEB958"/>
<stop offset="0.0001" stop-color="#D56D4C"/>
<stop offset="1" stop-color="#E2C161"/>
</linearGradient>
</defs>
</svg>
