<svg viewBox="0 0 95 95" fill="none" xmlns="http://www.w3.org/2000/svg">
<path d="M47.7766 0.216064L55.9438 6.30057L65.8177 3.80467L71.0348 12.5515L81.1123 14.0242L82.585 24.1016L91.3318 29.3187L88.8359 39.1926L94.9204 47.3598L88.8359 55.527L91.3318 65.401L82.585 70.6181L81.1123 80.6955L71.0348 82.1682L65.8177 90.915L55.9438 88.4191L47.7766 94.5036L39.6094 88.4191L29.7354 90.915L24.5184 82.1682L14.4409 80.6955L12.9682 70.6181L4.22142 65.401L6.71732 55.527L0.632812 47.3598L6.71732 39.1926L4.22142 29.3187L12.9682 24.1016L14.4409 14.0242L24.5184 12.5515L29.7354 3.80467L39.6094 6.30057L47.7766 0.216064Z" fill="url(#paint0_linear_12_1061)"/>
<defs>
<linearGradient id="paint0_linear_12_1061" x1="47.7766" y1="0.216064" x2="47.7766" y2="94.5036" gradientUnits="userSpaceOnUse">
<stop stop-color="#DEB958"/>
<stop offset="0.0001" stop-color="#D56D4C"/>
<stop offset="1" stop-color="#E2C161"/>
</linearGradient>
</defs>
</svg>
